<?xml version="1.0" encoding="UTF-8" standalone="no"?>
<!DOCTYPE svg PUBLIC "-//W3C//DTD SVG 1.1//EN"
 "http://www.w3.org/Graphics/SVG/1.1/DTD/svg11.dtd">
<!-- Generated by graphviz version 2.36.0 (20140111.2315)
 -->
<!-- Title: controllers_diagram Pages: 1 -->
<svg width="620pt" height="570pt"
 viewBox="0.00 0.00 620.00 570.00" xmlns="http://www.w3.org/2000/svg" xmlns:xlink="http://www.w3.org/1999/xlink">
<g id="graph0" class="graph" transform="scale(1 1) rotate(0) translate(4 566)">
<title>controllers_diagram</title>
<polygon fill="white" stroke="none" points="-4,4 -4,-566 616,-566 616,4 -4,4"/>
<!-- _diagram_info -->
<g id="node1" class="node"><title>_diagram_info</title>
<text text-anchor="start" x="314" y="-63.6" font-family="Times,serif" font-size="13.00">Controllers diagram</text>
<text text-anchor="start" x="314" y="-49.6" font-family="Times,serif" font-size="13.00">Date: Apr 16 2015 &#45; 10:17</text>
<text text-anchor="start" x="314" y="-35.6" font-family="Times,serif" font-size="13.00">Migration version: 20150328124901</text>
<text text-anchor="start" x="314" y="-21.6" font-family="Times,serif" font-size="13.00">Generated by RailRoady 1.3.0</text>
<text text-anchor="start" x="314" y="-7.6" font-family="Times,serif" font-size="13.00">http://railroady.prestonlee.com</text>
</g>
<!-- StaticPagesController -->
<g id="node2" class="node"><title>StaticPagesController</title>
<path fill="none" stroke="black" d="M462,-108.5C462,-108.5 572,-108.5 572,-108.5 578,-108.5 584,-114.5 584,-120.5 584,-120.5 584,-219.5 584,-219.5 584,-225.5 578,-231.5 572,-231.5 572,-231.5 462,-231.5 462,-231.5 456,-231.5 450,-225.5 450,-219.5 450,-219.5 450,-120.5 450,-120.5 450,-114.5 456,-108.5 462,-108.5"/>
<text text-anchor="middle" x="517" y="-216.3" font-family="Times,serif" font-size="14.00">StaticPagesController</text>
<polyline fill="none" stroke="black" points="450,-208.5 584,-208.5 "/>
<text text-anchor="start" x="458" y="-193.3" font-family="Times,serif" font-size="14.00">about</text>
<text text-anchor="start" x="458" y="-178.3" font-family="Times,serif" font-size="14.00">help</text>
<text text-anchor="start" x="458" y="-163.3" font-family="Times,serif" font-size="14.00">home</text>
<polyline fill="none" stroke="black" points="450,-155.5 584,-155.5 "/>
<polyline fill="none" stroke="black" points="450,-131.5 584,-131.5 "/>
<text text-anchor="start" x="458" y="-116.3" font-family="Times,serif" font-size="14.00">_layout</text>
</g>
<!-- GroupTweetsController -->
<g id="node3" class="node"><title>GroupTweetsController</title>
<path fill="none" stroke="black" d="M462,-270.5C462,-270.5 584,-270.5 584,-270.5 590,-270.5 596,-276.5 596,-282.5 596,-282.5 596,-381.5 596,-381.5 596,-387.5 590,-393.5 584,-393.5 584,-393.5 462,-393.5 462,-393.5 456,-393.5 450,-387.5 450,-381.5 450,-381.5 450,-282.5 450,-282.5 450,-276.5 456,-270.5 462,-270.5"/>
<text text-anchor="middle" x="523" y="-378.3" font-family="Times,serif" font-size="14.00">GroupTweetsController</text>
<polyline fill="none" stroke="black" points="450,-370.5 596,-370.5 "/>
<text text-anchor="start" x="458" y="-355.3" font-family="Times,serif" font-size="14.00">create</text>
<text text-anchor="start" x="458" y="-340.3" font-family="Times,serif" font-size="14.00">destroy</text>
<text text-anchor="start" x="458" y="-325.3" font-family="Times,serif" font-size="14.00">show</text>
<polyline fill="none" stroke="black" points="450,-317.5 596,-317.5 "/>
<polyline fill="none" stroke="black" points="450,-293.5 596,-293.5 "/>
<text text-anchor="start" x="458" y="-278.3" font-family="Times,serif" font-size="14.00">_layout</text>
</g>
<!-- TweetsController -->
<g id="node4" class="node"><title>TweetsController</title>
<path fill="none" stroke="black" d="M30,-162.5C30,-162.5 117,-162.5 117,-162.5 123,-162.5 129,-168.5 129,-174.5 129,-174.5 129,-333.5 129,-333.5 129,-339.5 123,-345.5 117,-345.5 117,-345.5 30,-345.5 30,-345.5 24,-345.5 18,-339.5 18,-333.5 18,-333.5 18,-174.5 18,-174.5 18,-168.5 24,-162.5 30,-162.5"/>
<text text-anchor="middle" x="73.5" y="-330.3" font-family="Times,serif" font-size="14.00">TweetsController</text>
<polyline fill="none" stroke="black" points="18,-322.5 129,-322.5 "/>
<text text-anchor="start" x="26" y="-307.3" font-family="Times,serif" font-size="14.00">create</text>
<text text-anchor="start" x="26" y="-292.3" font-family="Times,serif" font-size="14.00">destroy</text>
<text text-anchor="start" x="26" y="-277.3" font-family="Times,serif" font-size="14.00">retweet</text>
<text text-anchor="start" x="26" y="-262.3" font-family="Times,serif" font-size="14.00">show</text>
<polyline fill="none" stroke="black" points="18,-254.5 129,-254.5 "/>
<polyline fill="none" stroke="black" points="18,-230.5 129,-230.5 "/>
<text text-anchor="start" x="26" y="-215.3" font-family="Times,serif" font-size="14.00">_layout</text>
<text text-anchor="start" x="26" y="-200.3" font-family="Times,serif" font-size="14.00">correct_user</text>
<text text-anchor="start" x="26" y="-185.3" font-family="Times,serif" font-size="14.00">retweet_params</text>
<text text-anchor="start" x="26" y="-170.3" font-family="Times,serif" font-size="14.00">tweet_params</text>
</g>
<!-- ApplicationController -->
<g id="node5" class="node"><title>ApplicationController</title>
<path fill="none" stroke="black" d="M138,-378.5C138,-378.5 250,-378.5 250,-378.5 256,-378.5 262,-384.5 262,-390.5 262,-390.5 262,-549.5 262,-549.5 262,-555.5 256,-561.5 250,-561.5 250,-561.5 138,-561.5 138,-561.5 132,-561.5 126,-555.5 126,-549.5 126,-549.5 126,-390.5 126,-390.5 126,-384.5 132,-378.5 138,-378.5"/>
<text text-anchor="middle" x="194" y="-546.3" font-family="Times,serif" font-size="14.00">ApplicationController</text>
<polyline fill="none" stroke="black" points="126,-538.5 262,-538.5 "/>
<text text-anchor="start" x="134" y="-523.3" font-family="Times,serif" font-size="14.00">all_members</text>
<text text-anchor="start" x="134" y="-508.3" font-family="Times,serif" font-size="14.00">candidates</text>
<text text-anchor="start" x="134" y="-493.3" font-family="Times,serif" font-size="14.00">candidates2</text>
<text text-anchor="start" x="134" y="-478.3" font-family="Times,serif" font-size="14.00">get_groups</text>
<text text-anchor="start" x="134" y="-463.3" font-family="Times,serif" font-size="14.00">logged_in_user</text>
<polyline fill="none" stroke="black" points="126,-455.5 262,-455.5 "/>
<polyline fill="none" stroke="black" points="126,-431.5 262,-431.5 "/>
<text text-anchor="start" x="134" y="-416.3" font-family="Times,serif" font-size="14.00">_layout</text>
<text text-anchor="start" x="134" y="-401.3" font-family="Times,serif" font-size="14.00">count_retweets</text>
<text text-anchor="start" x="134" y="-386.3" font-family="Times,serif" font-size="14.00">count_tweets</text>
</g>
<!-- FollowersController -->
<g id="node6" class="node"><title>FollowersController</title>
<path fill="none" stroke="black" d="M498,-432.5C498,-432.5 600,-432.5 600,-432.5 606,-432.5 612,-438.5 612,-444.5 612,-444.5 612,-528.5 612,-528.5 612,-534.5 606,-540.5 600,-540.5 600,-540.5 498,-540.5 498,-540.5 492,-540.5 486,-534.5 486,-528.5 486,-528.5 486,-444.5 486,-444.5 486,-438.5 492,-432.5 498,-432.5"/>
<text text-anchor="middle" x="549" y="-525.3" font-family="Times,serif" font-size="14.00">FollowersController</text>
<polyline fill="none" stroke="black" points="486,-517.5 612,-517.5 "/>
<text text-anchor="start" x="494" y="-502.3" font-family="Times,serif" font-size="14.00">create</text>
<text text-anchor="start" x="494" y="-487.3" font-family="Times,serif" font-size="14.00">destroy</text>
<polyline fill="none" stroke="black" points="486,-479.5 612,-479.5 "/>
<polyline fill="none" stroke="black" points="486,-455.5 612,-455.5 "/>
<text text-anchor="start" x="494" y="-440.3" font-family="Times,serif" font-size="14.00">_layout</text>
</g>
<!-- GroupsController -->
<g id="node7" class="node"><title>GroupsController</title>
<path fill="none" stroke="black" d="M174,-0.5C174,-0.5 262,-0.5 262,-0.5 268,-0.5 274,-6.5 274,-12.5 274,-12.5 274,-321.5 274,-321.5 274,-327.5 268,-333.5 262,-333.5 262,-333.5 174,-333.5 174,-333.5 168,-333.5 162,-327.5 162,-321.5 162,-321.5 162,-12.5 162,-12.5 162,-6.5 168,-0.5 174,-0.5"/>
<text text-anchor="middle" x="218" y="-318.3" font-family="Times,serif" font-size="14.00">GroupsController</text>
<polyline fill="none" stroke="black" points="162,-310.5 274,-310.5 "/>
<text text-anchor="start" x="170" y="-295.3" font-family="Times,serif" font-size="14.00">add_member</text>
<text text-anchor="start" x="170" y="-280.3" font-family="Times,serif" font-size="14.00">ban</text>
<text text-anchor="start" x="170" y="-265.3" font-family="Times,serif" font-size="14.00">create</text>
<text text-anchor="start" x="170" y="-250.3" font-family="Times,serif" font-size="14.00">destroy</text>
<text text-anchor="start" x="170" y="-235.3" font-family="Times,serif" font-size="14.00">edit</text>
<text text-anchor="start" x="170" y="-220.3" font-family="Times,serif" font-size="14.00">index</text>
<text text-anchor="start" x="170" y="-205.3" font-family="Times,serif" font-size="14.00">kick</text>
<text text-anchor="start" x="170" y="-190.3" font-family="Times,serif" font-size="14.00">leave_group</text>
<text text-anchor="start" x="170" y="-175.3" font-family="Times,serif" font-size="14.00">manage</text>
<text text-anchor="start" x="170" y="-160.3" font-family="Times,serif" font-size="14.00">new</text>
<text text-anchor="start" x="170" y="-145.3" font-family="Times,serif" font-size="14.00">remove_ban</text>
<text text-anchor="start" x="170" y="-130.3" font-family="Times,serif" font-size="14.00">show</text>
<text text-anchor="start" x="170" y="-115.3" font-family="Times,serif" font-size="14.00">show_to_add</text>
<text text-anchor="start" x="170" y="-100.3" font-family="Times,serif" font-size="14.00">update</text>
<polyline fill="none" stroke="black" points="162,-92.5 274,-92.5 "/>
<polyline fill="none" stroke="black" points="162,-68.5 274,-68.5 "/>
<text text-anchor="start" x="170" y="-53.3" font-family="Times,serif" font-size="14.00">_layout</text>
<text text-anchor="start" x="170" y="-38.3" font-family="Times,serif" font-size="14.00">add_memeber</text>
<text text-anchor="start" x="170" y="-23.3" font-family="Times,serif" font-size="14.00">correct_user</text>
<text text-anchor="start" x="170" y="-8.3" font-family="Times,serif" font-size="14.00">group_params</text>
</g>
<!-- UsersController -->
<g id="node8" class="node"><title>UsersController</title>
<path fill="none" stroke="black" d="M318,-108.5C318,-108.5 397,-108.5 397,-108.5 403,-108.5 409,-114.5 409,-120.5 409,-120.5 409,-369.5 409,-369.5 409,-375.5 403,-381.5 397,-381.5 397,-381.5 318,-381.5 318,-381.5 312,-381.5 306,-375.5 306,-369.5 306,-369.5 306,-120.5 306,-120.5 306,-114.5 312,-108.5 318,-108.5"/>
<text text-anchor="middle" x="357.5" y="-366.3" font-family="Times,serif" font-size="14.00">UsersController</text>
<polyline fill="none" stroke="black" points="306,-358.5 409,-358.5 "/>
<text text-anchor="start" x="314" y="-343.3" font-family="Times,serif" font-size="14.00">create</text>
<text text-anchor="start" x="314" y="-328.3" font-family="Times,serif" font-size="14.00">destroy</text>
<text text-anchor="start" x="314" y="-313.3" font-family="Times,serif" font-size="14.00">edit</text>
<text text-anchor="start" x="314" y="-298.3" font-family="Times,serif" font-size="14.00">followers</text>
<text text-anchor="start" x="314" y="-283.3" font-family="Times,serif" font-size="14.00">following</text>
<text text-anchor="start" x="314" y="-268.3" font-family="Times,serif" font-size="14.00">index</text>
<text text-anchor="start" x="314" y="-253.3" font-family="Times,serif" font-size="14.00">new</text>
<text text-anchor="start" x="314" y="-238.3" font-family="Times,serif" font-size="14.00">show</text>
<text text-anchor="start" x="314" y="-223.3" font-family="Times,serif" font-size="14.00">suggest</text>
<text text-anchor="start" x="314" y="-208.3" font-family="Times,serif" font-size="14.00">update</text>
<polyline fill="none" stroke="black" points="306,-200.5 409,-200.5 "/>
<polyline fill="none" stroke="black" points="306,-176.5 409,-176.5 "/>
<text text-anchor="start" x="314" y="-161.3" font-family="Times,serif" font-size="14.00">_layout</text>
<text text-anchor="start" x="314" y="-146.3" font-family="Times,serif" font-size="14.00">admin_user</text>
<text text-anchor="start" x="314" y="-131.3" font-family="Times,serif" font-size="14.00">correct_user</text>
<text text-anchor="start" x="314" y="-116.3" font-family="Times,serif" font-size="14.00">user_params</text>
</g>
<!-- SessionsController -->
<g id="node9" class="node"><title>SessionsController</title>
<path fill="none" stroke="black" d="M12,-0.5C12,-0.5 107,-0.5 107,-0.5 113,-0.5 119,-6.5 119,-12.5 119,-12.5 119,-111.5 119,-111.5 119,-117.5 113,-123.5 107,-123.5 107,-123.5 12,-123.5 12,-123.5 6,-123.5 0,-117.5 0,-111.5 0,-111.5 0,-12.5 0,-12.5 0,-6.5 6,-0.5 12,-0.5"/>
<text text-anchor="middle" x="59.5" y="-108.3" font-family="Times,serif" font-size="14.00">SessionsController</text>
<polyline fill="none" stroke="black" points="0,-100.5 119,-100.5 "/>
<text text-anchor="start" x="8" y="-85.3" font-family="Times,serif" font-size="14.00">create</text>
<text text-anchor="start" x="8" y="-70.3" font-family="Times,serif" font-size="14.00">destroy</text>
<text text-anchor="start" x="8" y="-55.3" font-family="Times,serif" font-size="14.00">new</text>
<polyline fill="none" stroke="black" points="0,-47.5 119,-47.5 "/>
<polyline fill="none" stroke="black" points="0,-23.5 119,-23.5 "/>
<text text-anchor="start" x="8" y="-8.3" font-family="Times,serif" font-size="14.00">_layout</text>
</g>
</g>
</svg>
