<?xml version="1.0" encoding="UTF-8" standalone="no"?>
<!DOCTYPE svg PUBLIC "-//W3C//DTD SVG 1.1//EN"
 "http://www.w3.org/Graphics/SVG/1.1/DTD/svg11.dtd">
<!-- Generated by graphviz version 2.36.0 (20140111.2315)
 -->
<!-- Title: models_diagram Pages: 1 -->
<svg width="805pt" height="248pt"
 viewBox="0.00 0.00 805.00 248.00" xmlns="http://www.w3.org/2000/svg" xmlns:xlink="http://www.w3.org/1999/xlink">
<g id="graph0" class="graph" transform="scale(1 1) rotate(0) translate(4 244)">
<title>models_diagram</title>
<polygon fill="white" stroke="none" points="-4,4 -4,-244 801,-244 801,4 -4,4"/>
<!-- _diagram_info -->
<g id="node1" class="node"><title>_diagram_info</title>
<text text-anchor="start" x="8" y="-225.6" font-family="Times,serif" font-size="13.00">Models diagram</text>
<text text-anchor="start" x="8" y="-211.6" font-family="Times,serif" font-size="13.00">Date: Apr 16 2015 &#45; 10:17</text>
<text text-anchor="start" x="8" y="-197.6" font-family="Times,serif" font-size="13.00">Migration version: 20150328124901</text>
<text text-anchor="start" x="8" y="-183.6" font-family="Times,serif" font-size="13.00">Generated by RailRoady 1.3.0</text>
<text text-anchor="start" x="8" y="-169.6" font-family="Times,serif" font-size="13.00">http://railroady.prestonlee.com</text>
</g>
<!-- Hashtag -->
<g id="node2" class="node"><title>Hashtag</title>
<ellipse fill="none" stroke="black" cx="272" cy="-201" rx="39.4691" ry="18"/>
<text text-anchor="middle" x="272" y="-197.3" font-family="Times,serif" font-size="14.00">Hashtag</text>
</g>
<!-- Hashrelation -->
<g id="node3" class="node"><title>Hashrelation</title>
<ellipse fill="none" stroke="black" cx="260" cy="-18" rx="55.3436" ry="18"/>
<text text-anchor="middle" x="260" y="-14.3" font-family="Times,serif" font-size="14.00">Hashrelation</text>
</g>
<!-- Hashtag&#45;&gt;Hashrelation -->
<g id="edge1" class="edge"><title>Hashtag&#45;&gt;Hashrelation</title>
<path fill="none" stroke="#9267b3" d="M270.317,-174.611C268.077,-140.823 264.131,-81.3028 261.822,-46.4866"/>
<ellipse fill="none" stroke="#9267b3" cx="270.606" cy="-178.981" rx="4" ry="4"/>
<polygon fill="#9267b3" stroke="#9267b3" points="261.796,-46.0927 265.625,-35.8169 261.465,-41.1037 261.135,-36.1146 261.135,-36.1146 261.135,-36.1146 261.465,-41.1037 256.645,-36.4124 261.796,-46.0927 261.796,-46.0927"/>
</g>
<!-- Tweet -->
<g id="node7" class="node"><title>Tweet</title>
<ellipse fill="none" stroke="black" cx="309" cy="-92" rx="32.2457" ry="18"/>
<text text-anchor="middle" x="309" y="-88.3" font-family="Times,serif" font-size="14.00">Tweet</text>
</g>
<!-- Hashtag&#45;&gt;Tweet -->
<g id="edge2" class="edge"><title>Hashtag&#45;&gt;Tweet</title>
<path fill="none" stroke="#014b10" d="M281.304,-173.095C286.998,-156.628 294.25,-135.654 299.906,-119.3"/>
<polygon fill="#014b10" stroke="#014b10" points="281.213,-173.358 273.692,-181.338 279.579,-178.083 277.945,-182.809 277.945,-182.809 277.945,-182.809 279.579,-178.083 282.198,-184.279 281.213,-173.358 281.213,-173.358"/>
<polygon fill="#014b10" stroke="#014b10" points="299.924,-119.247 307.445,-111.267 301.558,-114.521 303.192,-109.796 303.192,-109.796 303.192,-109.796 301.558,-114.521 298.939,-108.325 299.924,-119.247 299.924,-119.247"/>
</g>
<!-- User -->
<g id="node4" class="node"><title>User</title>
<ellipse fill="none" stroke="black" cx="491" cy="-201" rx="26.949" ry="18"/>
<text text-anchor="middle" x="491" y="-197.3" font-family="Times,serif" font-size="14.00">User</text>
</g>
<!-- User&#45;&gt;User -->
<g id="edge8" class="edge"><title>User&#45;&gt;User</title>
<path fill="none" stroke="#7d3464" d="M527.12,-206.426C532.422,-205.571 536,-203.763 536,-201 536,-198.237 532.422,-196.429 527.12,-195.574"/>
<polygon fill="#7d3464" stroke="#7d3464" points="526.882,-206.438 516.66,-202.47 521.889,-206.701 516.896,-206.963 516.896,-206.963 516.896,-206.963 521.889,-206.701 517.132,-211.457 526.882,-206.438 526.882,-206.438"/>
<polygon fill="#7d3464" stroke="#7d3464" points="526.882,-195.562 517.132,-190.543 521.889,-195.299 516.896,-195.037 516.896,-195.037 516.896,-195.037 521.889,-195.299 516.66,-199.53 526.882,-195.562 526.882,-195.562"/>
<text text-anchor="middle" x="562" y="-197.3" font-family="Times,serif" font-size="14.00">followers</text>
</g>
<!-- User&#45;&gt;User -->
<g id="edge9" class="edge"><title>User&#45;&gt;User</title>
<path fill="none" stroke="#8beda2" d="M524.935,-211.598C553.792,-215.267 588,-211.734 588,-201 588,-190.266 553.792,-186.733 524.935,-190.402"/>
<polygon fill="#8beda2" stroke="#8beda2" points="524.888,-211.591 515.731,-205.557 519.952,-210.795 515.016,-210 515.016,-210 515.016,-210 519.952,-210.795 514.3,-214.443 524.888,-211.591 524.888,-211.591"/>
<polygon fill="#8beda2" stroke="#8beda2" points="524.888,-190.409 514.3,-187.557 519.952,-191.205 515.016,-192 515.016,-192 515.016,-192 519.952,-191.205 515.731,-196.443 524.888,-190.409 524.888,-190.409"/>
<text text-anchor="middle" x="614.5" y="-197.3" font-family="Times,serif" font-size="14.00">following</text>
</g>
<!-- Grouprel -->
<g id="node5" class="node"><title>Grouprel</title>
<ellipse fill="none" stroke="black" cx="386" cy="-18" rx="42.3701" ry="18"/>
<text text-anchor="middle" x="386" y="-14.3" font-family="Times,serif" font-size="14.00">Grouprel</text>
</g>
<!-- User&#45;&gt;Grouprel -->
<g id="edge11" class="edge"><title>User&#45;&gt;Grouprel</title>
<path fill="none" stroke="#c8c110" d="M463.137,-184.785C438.343,-169.517 403.652,-143.48 388,-110 378.67,-90.0425 378.909,-64.8339 381.061,-46.0124"/>
<ellipse fill="none" stroke="#c8c110" cx="466.73" cy="-186.935" rx="4.00002" ry="4.00002"/>
<polygon fill="#c8c110" stroke="#c8c110" points="381.073,-45.9273 386.906,-36.6413 381.761,-40.9748 382.449,-36.0223 382.449,-36.0223 382.449,-36.0223 381.761,-40.9748 377.991,-35.4034 381.073,-45.9273 381.073,-45.9273"/>
</g>
<!-- Follower -->
<g id="node6" class="node"><title>Follower</title>
<ellipse fill="none" stroke="black" cx="600" cy="-92" rx="42.3701" ry="18"/>
<text text-anchor="middle" x="600" y="-88.3" font-family="Times,serif" font-size="14.00">Follower</text>
</g>
<!-- User&#45;&gt;Follower -->
<g id="edge6" class="edge"><title>User&#45;&gt;Follower</title>
<path fill="none" stroke="#21e66d" d="M497.943,-175.198C503.261,-159.987 511.939,-141.001 525,-128 533.911,-119.13 545.492,-112.235 556.877,-107"/>
<ellipse fill="none" stroke="#21e66d" cx="496.571" cy="-179.397" rx="4.00001" ry="4.00001"/>
<polygon fill="#21e66d" stroke="#21e66d" points="557.127,-106.894 568.09,-107.129 561.729,-104.941 566.332,-102.987 566.332,-102.987 566.332,-102.987 561.729,-104.941 564.573,-98.8448 557.127,-106.894 557.127,-106.894"/>
<text text-anchor="middle" x="570.5" y="-132.3" font-family="Times,serif" font-size="14.00">active_followers</text>
</g>
<!-- User&#45;&gt;Follower -->
<g id="edge7" class="edge"><title>User&#45;&gt;Follower</title>
<path fill="none" stroke="#566fcf" d="M525.49,-194.998C555.134,-188.678 596.147,-174.648 616,-144 620.912,-136.417 619.773,-127.226 616.476,-118.746"/>
<ellipse fill="none" stroke="#566fcf" cx="521.382" cy="-195.809" rx="4.00001" ry="4.00001"/>
<polygon fill="#566fcf" stroke="#566fcf" points="616.404,-118.597 616.094,-107.635 614.224,-114.097 612.044,-109.598 612.044,-109.598 612.044,-109.598 614.224,-114.097 607.994,-111.56 616.404,-118.597 616.404,-118.597"/>
<text text-anchor="middle" x="668" y="-132.3" font-family="Times,serif" font-size="14.00">passive_followers</text>
</g>
<!-- User&#45;&gt;Tweet -->
<g id="edge3" class="edge"><title>User&#45;&gt;Tweet</title>
<path fill="none" stroke="#ac0a88" d="M458.497,-191.124C429.589,-182.223 387.055,-166.583 355,-144 344.445,-136.564 334.59,-126.294 326.73,-116.918"/>
<ellipse fill="none" stroke="#ac0a88" cx="462.438" cy="-192.306" rx="4.00001" ry="4.00001"/>
<polygon fill="#ac0a88" stroke="#ac0a88" points="326.633,-116.798 323.877,-106.184 323.501,-112.9 320.369,-109.003 320.369,-109.003 320.369,-109.003 323.501,-112.9 316.861,-111.821 326.633,-116.798 326.633,-116.798"/>
</g>
<!-- Ban -->
<g id="node8" class="node"><title>Ban</title>
<ellipse fill="none" stroke="black" cx="482" cy="-18" rx="27" ry="18"/>
<text text-anchor="middle" x="482" y="-14.3" font-family="Times,serif" font-size="14.00">Ban</text>
</g>
<!-- User&#45;&gt;Ban -->
<g id="edge5" class="edge"><title>User&#45;&gt;Ban</title>
<path fill="none" stroke="#bc2c79" d="M489.738,-174.611C488.057,-140.823 485.098,-81.3028 483.367,-46.4866"/>
<ellipse fill="none" stroke="#bc2c79" cx="489.955" cy="-178.977" rx="4" ry="4"/>
<polygon fill="#bc2c79" stroke="#bc2c79" points="483.348,-46.1023 487.345,-35.8911 483.099,-41.1085 482.851,-36.1146 482.851,-36.1146 482.851,-36.1146 483.099,-41.1085 478.357,-36.3382 483.348,-46.1023 483.348,-46.1023"/>
</g>
<!-- Suggested -->
<g id="node9" class="node"><title>Suggested</title>
<ellipse fill="none" stroke="black" cx="751" cy="-92" rx="46.1964" ry="18"/>
<text text-anchor="middle" x="751" y="-88.3" font-family="Times,serif" font-size="14.00">Suggested</text>
</g>
<!-- User&#45;&gt;Suggested -->
<g id="edge4" class="edge"><title>User&#45;&gt;Suggested</title>
<path fill="none" stroke="#634f51" d="M526.307,-199.695C574.768,-197.572 662.527,-187.44 721,-144 729.446,-137.726 735.935,-128.308 740.682,-119.267"/>
<ellipse fill="none" stroke="#634f51" cx="522.301" cy="-199.841" rx="4" ry="4"/>
<polygon fill="#634f51" stroke="#634f51" points="740.729,-119.168 749.075,-112.054 742.868,-114.649 745.007,-110.129 745.007,-110.129 745.007,-110.129 742.868,-114.649 740.94,-108.204 740.729,-119.168 740.729,-119.168"/>
</g>
<!-- Group -->
<g id="node10" class="node"><title>Group</title>
<ellipse fill="none" stroke="black" cx="430" cy="-92" rx="33.2209" ry="18"/>
<text text-anchor="middle" x="430" y="-88.3" font-family="Times,serif" font-size="14.00">Group</text>
</g>
<!-- User&#45;&gt;Group -->
<g id="edge10" class="edge"><title>User&#45;&gt;Group</title>
<path fill="none" stroke="#7f2026" d="M476.628,-174.79C466.909,-157.743 454.124,-135.317 444.4,-118.26"/>
<polygon fill="#7f2026" stroke="#7f2026" points="476.783,-175.062 477.826,-185.978 479.259,-179.405 481.735,-183.749 481.735,-183.749 481.735,-183.749 479.259,-179.405 485.645,-181.52 476.783,-175.062 476.783,-175.062"/>
<polygon fill="#7f2026" stroke="#7f2026" points="444.304,-118.091 443.261,-107.175 441.828,-113.748 439.352,-109.404 439.352,-109.404 439.352,-109.404 441.828,-113.748 435.442,-111.633 444.304,-118.091 444.304,-118.091"/>
</g>
<!-- Tweet&#45;&gt;Hashrelation -->
<g id="edge12" class="edge"><title>Tweet&#45;&gt;Hashrelation</title>
<path fill="none" stroke="#d47563" d="M293.599,-68.3703C288.365,-60.6793 282.485,-52.0392 277.124,-44.1625"/>
<ellipse fill="none" stroke="#d47563" cx="295.875" cy="-71.714" rx="4.00002" ry="4.00002"/>
<polygon fill="#d47563" stroke="#d47563" points="276.981,-43.9522 275.075,-33.1532 274.168,-39.8186 271.355,-35.6851 271.355,-35.6851 271.355,-35.6851 274.168,-39.8186 267.635,-38.2169 276.981,-43.9522 276.981,-43.9522"/>
</g>
<!-- Group&#45;&gt;Grouprel -->
<g id="edge13" class="edge"><title>Group&#45;&gt;Grouprel</title>
<path fill="none" stroke="#0921b0" d="M415.8,-67.7631C411.224,-60.2756 406.131,-51.942 401.469,-44.3127"/>
<ellipse fill="none" stroke="#0921b0" cx="417.93" cy="-71.249" rx="4.00002" ry="4.00002"/>
<polygon fill="#0921b0" stroke="#0921b0" points="401.465,-44.3057 400.09,-33.4264 398.857,-40.0393 396.25,-35.7729 396.25,-35.7729 396.25,-35.7729 398.857,-40.0393 392.41,-38.1195 401.465,-44.3057 401.465,-44.3057"/>
</g>
<!-- Group&#45;&gt;Ban -->
<g id="edge14" class="edge"><title>Group&#45;&gt;Ban</title>
<path fill="none" stroke="#29320a" d="M446.296,-68.4368C452.223,-60.2301 458.935,-50.9358 464.928,-42.6385"/>
<ellipse fill="none" stroke="#29320a" cx="443.882" cy="-71.7781" rx="4.00002" ry="4.00002"/>
<polygon fill="#29320a" stroke="#29320a" points="464.994,-42.5471 474.497,-37.075 467.921,-38.4937 470.849,-34.4403 470.849,-34.4403 470.849,-34.4403 467.921,-38.4937 467.201,-31.8056 464.994,-42.5471 464.994,-42.5471"/>
</g>
</g>
</svg>
