<?xml version="1.0" encoding="UTF-8" standalone="no"?>
<!DOCTYPE svg PUBLIC "-//W3C//DTD SVG 1.1//EN"
 "http://www.w3.org/Graphics/SVG/1.1/DTD/svg11.dtd">
<!-- Generated by graphviz version 2.36.0 (20140111.2315)
 -->
<!-- Title: models_diagram Pages: 1 -->
<svg width="1005pt" height="510pt"
 viewBox="0.00 0.00 1005.00 510.00" xmlns="http://www.w3.org/2000/svg" xmlns:xlink="http://www.w3.org/1999/xlink">
<g id="graph0" class="graph" transform="scale(1 1) rotate(0) translate(4 506)">
<title>models_diagram</title>
<polygon fill="white" stroke="none" points="-4,4 -4,-506 1001,-506 1001,4 -4,4"/>
<!-- _diagram_info -->
<g id="node1" class="node"><title>_diagram_info</title>
<text text-anchor="start" x="8" y="-450.6" font-family="Times,serif" font-size="13.00">Models diagram</text>
<text text-anchor="start" x="8" y="-436.6" font-family="Times,serif" font-size="13.00">Date: Apr 16 2015 &#45; 10:17</text>
<text text-anchor="start" x="8" y="-422.6" font-family="Times,serif" font-size="13.00">Migration version: 20150328124901</text>
<text text-anchor="start" x="8" y="-408.6" font-family="Times,serif" font-size="13.00">Generated by RailRoady 1.3.0</text>
<text text-anchor="start" x="8" y="-394.6" font-family="Times,serif" font-size="13.00">http://railroady.prestonlee.com</text>
</g>
<!-- Hashtag -->
<g id="node2" class="node"><title>Hashtag</title>
<path fill="none" stroke="black" d="M244.5,-380.5C244.5,-380.5 351.5,-380.5 351.5,-380.5 357.5,-380.5 363.5,-386.5 363.5,-392.5 363.5,-392.5 363.5,-459.5 363.5,-459.5 363.5,-465.5 357.5,-471.5 351.5,-471.5 351.5,-471.5 244.5,-471.5 244.5,-471.5 238.5,-471.5 232.5,-465.5 232.5,-459.5 232.5,-459.5 232.5,-392.5 232.5,-392.5 232.5,-386.5 238.5,-380.5 244.5,-380.5"/>
<text text-anchor="middle" x="298" y="-456.3" font-family="Times,serif" font-size="14.00">Hashtag</text>
<polyline fill="none" stroke="black" points="232.5,-448.5 363.5,-448.5 "/>
<text text-anchor="start" x="240.5" y="-433.3" font-family="Times,serif" font-size="14.00">id :integer</text>
<text text-anchor="start" x="240.5" y="-418.3" font-family="Times,serif" font-size="14.00">name :string</text>
<text text-anchor="start" x="240.5" y="-403.3" font-family="Times,serif" font-size="14.00">created_at :datetime</text>
<text text-anchor="start" x="240.5" y="-388.3" font-family="Times,serif" font-size="14.00">updated_at :datetime</text>
</g>
<!-- Hashrelation -->
<g id="node3" class="node"><title>Hashrelation</title>
<path fill="none" stroke="black" d="M249.5,-1C249.5,-1 356.5,-1 356.5,-1 362.5,-1 368.5,-7 368.5,-13 368.5,-13 368.5,-95 368.5,-95 368.5,-101 362.5,-107 356.5,-107 356.5,-107 249.5,-107 249.5,-107 243.5,-107 237.5,-101 237.5,-95 237.5,-95 237.5,-13 237.5,-13 237.5,-7 243.5,-1 249.5,-1"/>
<text text-anchor="middle" x="303" y="-91.8" font-family="Times,serif" font-size="14.00">Hashrelation</text>
<polyline fill="none" stroke="black" points="237.5,-84 368.5,-84 "/>
<text text-anchor="start" x="245.5" y="-68.8" font-family="Times,serif" font-size="14.00">id :integer</text>
<text text-anchor="start" x="245.5" y="-53.8" font-family="Times,serif" font-size="14.00">tweet_id :integer</text>
<text text-anchor="start" x="245.5" y="-38.8" font-family="Times,serif" font-size="14.00">hashtag_id :integer</text>
<text text-anchor="start" x="245.5" y="-23.8" font-family="Times,serif" font-size="14.00">created_at :datetime</text>
<text text-anchor="start" x="245.5" y="-8.8" font-family="Times,serif" font-size="14.00">updated_at :datetime</text>
</g>
<!-- Hashtag&#45;&gt;Hashrelation -->
<g id="edge1" class="edge"><title>Hashtag&#45;&gt;Hashrelation</title>
<path fill="none" stroke="#15c85e" d="M292.914,-372.459C288.271,-316.319 282.977,-224.757 289,-146 289.715,-136.655 290.836,-126.817 292.141,-117.202"/>
<ellipse fill="none" stroke="#15c85e" cx="293.255" cy="-376.493" rx="4" ry="4"/>
<polygon fill="#15c85e" stroke="#15c85e" points="292.142,-117.193 298.012,-107.931 292.85,-112.243 293.558,-107.294 293.558,-107.294 293.558,-107.294 292.85,-112.243 289.103,-106.657 292.142,-117.193 292.142,-117.193"/>
</g>
<!-- Tweet -->
<g id="node7" class="node"><title>Tweet</title>
<path fill="none" stroke="black" d="M310.5,-146.5C310.5,-146.5 443.5,-146.5 443.5,-146.5 449.5,-146.5 455.5,-152.5 455.5,-158.5 455.5,-158.5 455.5,-285.5 455.5,-285.5 455.5,-291.5 449.5,-297.5 443.5,-297.5 443.5,-297.5 310.5,-297.5 310.5,-297.5 304.5,-297.5 298.5,-291.5 298.5,-285.5 298.5,-285.5 298.5,-158.5 298.5,-158.5 298.5,-152.5 304.5,-146.5 310.5,-146.5"/>
<text text-anchor="middle" x="377" y="-282.3" font-family="Times,serif" font-size="14.00">Tweet</text>
<polyline fill="none" stroke="black" points="298.5,-274.5 455.5,-274.5 "/>
<text text-anchor="start" x="306.5" y="-259.3" font-family="Times,serif" font-size="14.00">id :integer</text>
<text text-anchor="start" x="306.5" y="-244.3" font-family="Times,serif" font-size="14.00">content :text</text>
<text text-anchor="start" x="306.5" y="-229.3" font-family="Times,serif" font-size="14.00">user_id :integer</text>
<text text-anchor="start" x="306.5" y="-214.3" font-family="Times,serif" font-size="14.00">created_at :datetime</text>
<text text-anchor="start" x="306.5" y="-199.3" font-family="Times,serif" font-size="14.00">updated_at :datetime</text>
<text text-anchor="start" x="306.5" y="-184.3" font-family="Times,serif" font-size="14.00">picture :string</text>
<text text-anchor="start" x="306.5" y="-169.3" font-family="Times,serif" font-size="14.00">group :integer</text>
<text text-anchor="start" x="306.5" y="-154.3" font-family="Times,serif" font-size="14.00">original_tweet_id :integer</text>
</g>
<!-- Hashtag&#45;&gt;Tweet -->
<g id="edge2" class="edge"><title>Hashtag&#45;&gt;Tweet</title>
<path fill="none" stroke="#3c0abd" d="M319.187,-370.826C326.82,-351.308 335.626,-328.793 344.026,-307.313"/>
<polygon fill="#3c0abd" stroke="#3c0abd" points="319.175,-370.857 311.342,-378.531 317.354,-375.513 315.533,-380.17 315.533,-380.17 315.533,-380.17 317.354,-375.513 319.724,-381.809 319.175,-370.857 319.175,-370.857"/>
<polygon fill="#3c0abd" stroke="#3c0abd" points="344.081,-307.172 351.915,-299.498 345.902,-302.515 347.724,-297.859 347.724,-297.859 347.724,-297.859 345.902,-302.515 343.533,-296.22 344.081,-307.172 344.081,-307.172"/>
</g>
<!-- User -->
<g id="node4" class="node"><title>User</title>
<path fill="none" stroke="black" d="M609,-350.5C609,-350.5 735,-350.5 735,-350.5 741,-350.5 747,-356.5 747,-362.5 747,-362.5 747,-489.5 747,-489.5 747,-495.5 741,-501.5 735,-501.5 735,-501.5 609,-501.5 609,-501.5 603,-501.5 597,-495.5 597,-489.5 597,-489.5 597,-362.5 597,-362.5 597,-356.5 603,-350.5 609,-350.5"/>
<text text-anchor="middle" x="672" y="-486.3" font-family="Times,serif" font-size="14.00">User</text>
<polyline fill="none" stroke="black" points="597,-478.5 747,-478.5 "/>
<text text-anchor="start" x="605" y="-463.3" font-family="Times,serif" font-size="14.00">id :integer</text>
<text text-anchor="start" x="605" y="-448.3" font-family="Times,serif" font-size="14.00">name :string</text>
<text text-anchor="start" x="605" y="-433.3" font-family="Times,serif" font-size="14.00">email :string</text>
<text text-anchor="start" x="605" y="-418.3" font-family="Times,serif" font-size="14.00">created_at :datetime</text>
<text text-anchor="start" x="605" y="-403.3" font-family="Times,serif" font-size="14.00">updated_at :datetime</text>
<text text-anchor="start" x="605" y="-388.3" font-family="Times,serif" font-size="14.00">password_digest :string</text>
<text text-anchor="start" x="605" y="-373.3" font-family="Times,serif" font-size="14.00">remember_digest :string</text>
<text text-anchor="start" x="605" y="-358.3" font-family="Times,serif" font-size="14.00">admin :boolean</text>
</g>
<!-- User&#45;&gt;User -->
<g id="edge8" class="edge"><title>User&#45;&gt;User</title>
<path fill="none" stroke="#b1c65e" d="M756.898,-432.29C761.359,-430.743 764,-428.646 764,-426 764,-423.354 761.359,-421.257 756.898,-419.71"/>
<polygon fill="#b1c65e" stroke="#b1c65e" points="756.842,-432.303 746.101,-430.092 751.962,-433.393 747.083,-434.483 747.083,-434.483 747.083,-434.483 751.962,-433.393 748.064,-438.875 756.842,-432.303 756.842,-432.303"/>
<polygon fill="#b1c65e" stroke="#b1c65e" points="756.842,-419.697 748.064,-413.125 751.962,-418.607 747.083,-417.517 747.083,-417.517 747.083,-417.517 751.962,-418.607 746.101,-421.908 756.842,-419.697 756.842,-419.697"/>
<text text-anchor="middle" x="790" y="-422.3" font-family="Times,serif" font-size="14.00">followers</text>
</g>
<!-- User&#45;&gt;User -->
<g id="edge9" class="edge"><title>User&#45;&gt;User</title>
<path fill="none" stroke="#051ea9" d="M757.652,-445.125C789.111,-445.138 816,-438.763 816,-426 816,-413.237 789.111,-406.862 757.652,-406.875"/>
<polygon fill="#051ea9" stroke="#051ea9" points="757.304,-445.117 747.406,-440.397 752.305,-445.007 747.306,-444.896 747.306,-444.896 747.306,-444.896 752.305,-445.007 747.207,-449.395 757.304,-445.117 757.304,-445.117"/>
<polygon fill="#051ea9" stroke="#051ea9" points="757.304,-406.883 747.207,-402.605 752.305,-406.993 747.306,-407.104 747.306,-407.104 747.306,-407.104 752.305,-406.993 747.406,-411.603 757.304,-406.883 757.304,-406.883"/>
<text text-anchor="middle" x="842.5" y="-422.3" font-family="Times,serif" font-size="14.00">following</text>
</g>
<!-- Grouprel -->
<g id="node5" class="node"><title>Grouprel</title>
<path fill="none" stroke="black" d="M440.5,-1C440.5,-1 547.5,-1 547.5,-1 553.5,-1 559.5,-7 559.5,-13 559.5,-13 559.5,-95 559.5,-95 559.5,-101 553.5,-107 547.5,-107 547.5,-107 440.5,-107 440.5,-107 434.5,-107 428.5,-101 428.5,-95 428.5,-95 428.5,-13 428.5,-13 428.5,-7 434.5,-1 440.5,-1"/>
<text text-anchor="middle" x="494" y="-91.8" font-family="Times,serif" font-size="14.00">Grouprel</text>
<polyline fill="none" stroke="black" points="428.5,-84 559.5,-84 "/>
<text text-anchor="start" x="436.5" y="-68.8" font-family="Times,serif" font-size="14.00">id :integer</text>
<text text-anchor="start" x="436.5" y="-53.8" font-family="Times,serif" font-size="14.00">user_id :integer</text>
<text text-anchor="start" x="436.5" y="-38.8" font-family="Times,serif" font-size="14.00">group_id :integer</text>
<text text-anchor="start" x="436.5" y="-23.8" font-family="Times,serif" font-size="14.00">created_at :datetime</text>
<text text-anchor="start" x="436.5" y="-8.8" font-family="Times,serif" font-size="14.00">updated_at :datetime</text>
</g>
<!-- User&#45;&gt;Grouprel -->
<g id="edge11" class="edge"><title>User&#45;&gt;Grouprel</title>
<path fill="none" stroke="#3faae4" d="M589.842,-384.252C556.791,-363.307 522.048,-334.439 503,-298 473.755,-242.056 475.604,-168.56 482.2,-117.103"/>
<ellipse fill="none" stroke="#3faae4" cx="593.463" cy="-386.495" rx="4.00002" ry="4.00002"/>
<polygon fill="#3faae4" stroke="#3faae4" points="482.211,-117.024 488.033,-107.731 482.893,-112.07 483.575,-107.117 483.575,-107.117 483.575,-107.117 482.893,-112.07 479.117,-106.503 482.211,-117.024 482.211,-117.024"/>
</g>
<!-- Follower -->
<g id="node6" class="node"><title>Follower</title>
<path fill="none" stroke="black" d="M721.5,-169C721.5,-169 828.5,-169 828.5,-169 834.5,-169 840.5,-175 840.5,-181 840.5,-181 840.5,-263 840.5,-263 840.5,-269 834.5,-275 828.5,-275 828.5,-275 721.5,-275 721.5,-275 715.5,-275 709.5,-269 709.5,-263 709.5,-263 709.5,-181 709.5,-181 709.5,-175 715.5,-169 721.5,-169"/>
<text text-anchor="middle" x="775" y="-259.8" font-family="Times,serif" font-size="14.00">Follower</text>
<polyline fill="none" stroke="black" points="709.5,-252 840.5,-252 "/>
<text text-anchor="start" x="717.5" y="-236.8" font-family="Times,serif" font-size="14.00">id :integer</text>
<text text-anchor="start" x="717.5" y="-221.8" font-family="Times,serif" font-size="14.00">follower_id :integer</text>
<text text-anchor="start" x="717.5" y="-206.8" font-family="Times,serif" font-size="14.00">followed_id :integer</text>
<text text-anchor="start" x="717.5" y="-191.8" font-family="Times,serif" font-size="14.00">created_at :datetime</text>
<text text-anchor="start" x="717.5" y="-176.8" font-family="Times,serif" font-size="14.00">updated_at :datetime</text>
</g>
<!-- User&#45;&gt;Follower -->
<g id="edge6" class="edge"><title>User&#45;&gt;Follower</title>
<path fill="none" stroke="#d350fe" d="M694.397,-342.658C697.853,-333.484 701.719,-324.421 706,-316 711.608,-304.97 718.507,-293.868 725.753,-283.366"/>
<ellipse fill="none" stroke="#d350fe" cx="692.957" cy="-346.62" rx="4.00001" ry="4.00001"/>
<polygon fill="#d350fe" stroke="#d350fe" points="725.839,-283.245 735.292,-277.688 728.73,-279.166 731.621,-275.086 731.621,-275.086 731.621,-275.086 728.73,-279.166 727.949,-272.484 725.839,-283.245 725.839,-283.245"/>
<text text-anchor="middle" x="751.5" y="-320.3" font-family="Times,serif" font-size="14.00">active_followers</text>
</g>
<!-- User&#45;&gt;Follower -->
<g id="edge7" class="edge"><title>User&#45;&gt;Follower</title>
<path fill="none" stroke="#0c84cc" d="M753.557,-381.509C771.02,-368.096 787.158,-351.589 797,-332 804.285,-317.5 804.414,-300.771 801.301,-284.84"/>
<ellipse fill="none" stroke="#0c84cc" cx="750.288" cy="-383.93" rx="4.00002" ry="4.00002"/>
<polygon fill="#0c84cc" stroke="#0c84cc" points="801.287,-284.781 803.358,-274.012 800.133,-279.916 798.979,-275.051 798.979,-275.051 798.979,-275.051 800.133,-279.916 794.601,-276.089 801.287,-284.781 801.287,-284.781"/>
<text text-anchor="middle" x="850" y="-320.3" font-family="Times,serif" font-size="14.00">passive_followers</text>
</g>
<!-- User&#45;&gt;Tweet -->
<g id="edge3" class="edge"><title>User&#45;&gt;Tweet</title>
<path fill="none" stroke="#5ab9cd" d="M589.124,-396.333C550.724,-380.752 505.785,-359.088 470,-332 459.569,-324.104 449.498,-314.851 440.081,-305.133"/>
<ellipse fill="none" stroke="#5ab9cd" cx="592.998" cy="-397.882" rx="4.00001" ry="4.00001"/>
<polygon fill="#5ab9cd" stroke="#5ab9cd" points="439.867,-304.906 436.287,-294.541 436.439,-301.266 433.011,-297.626 433.011,-297.626 433.011,-297.626 436.439,-301.266 429.735,-300.711 439.867,-304.906 439.867,-304.906"/>
</g>
<!-- Ban -->
<g id="node8" class="node"><title>Ban</title>
<path fill="none" stroke="black" d="M599.5,-1C599.5,-1 706.5,-1 706.5,-1 712.5,-1 718.5,-7 718.5,-13 718.5,-13 718.5,-95 718.5,-95 718.5,-101 712.5,-107 706.5,-107 706.5,-107 599.5,-107 599.5,-107 593.5,-107 587.5,-101 587.5,-95 587.5,-95 587.5,-13 587.5,-13 587.5,-7 593.5,-1 599.5,-1"/>
<text text-anchor="middle" x="653" y="-91.8" font-family="Times,serif" font-size="14.00">Ban</text>
<polyline fill="none" stroke="black" points="587.5,-84 718.5,-84 "/>
<text text-anchor="start" x="595.5" y="-68.8" font-family="Times,serif" font-size="14.00">id :integer</text>
<text text-anchor="start" x="595.5" y="-53.8" font-family="Times,serif" font-size="14.00">group_id :integer</text>
<text text-anchor="start" x="595.5" y="-38.8" font-family="Times,serif" font-size="14.00">user_id :integer</text>
<text text-anchor="start" x="595.5" y="-23.8" font-family="Times,serif" font-size="14.00">created_at :datetime</text>
<text text-anchor="start" x="595.5" y="-8.8" font-family="Times,serif" font-size="14.00">updated_at :datetime</text>
</g>
<!-- User&#45;&gt;Ban -->
<g id="edge5" class="edge"><title>User&#45;&gt;Ban</title>
<path fill="none" stroke="#b69b90" d="M667.735,-341.944C664.242,-273.93 659.377,-179.188 656.209,-117.483"/>
<ellipse fill="none" stroke="#b69b90" cx="667.95" cy="-346.13" rx="4" ry="4"/>
<polygon fill="#b69b90" stroke="#b69b90" points="656.189,-117.104 660.17,-106.886 655.933,-112.111 655.676,-107.117 655.676,-107.117 655.676,-107.117 655.933,-112.111 651.182,-107.348 656.189,-117.104 656.189,-117.104"/>
</g>
<!-- Suggested -->
<g id="node9" class="node"><title>Suggested</title>
<path fill="none" stroke="black" d="M878.5,-169C878.5,-169 985.5,-169 985.5,-169 991.5,-169 997.5,-175 997.5,-181 997.5,-181 997.5,-263 997.5,-263 997.5,-269 991.5,-275 985.5,-275 985.5,-275 878.5,-275 878.5,-275 872.5,-275 866.5,-269 866.5,-263 866.5,-263 866.5,-181 866.5,-181 866.5,-175 872.5,-169 878.5,-169"/>
<text text-anchor="middle" x="932" y="-259.8" font-family="Times,serif" font-size="14.00">Suggested</text>
<polyline fill="none" stroke="black" points="866.5,-252 997.5,-252 "/>
<text text-anchor="start" x="874.5" y="-236.8" font-family="Times,serif" font-size="14.00">id :integer</text>
<text text-anchor="start" x="874.5" y="-221.8" font-family="Times,serif" font-size="14.00">user_id :integer</text>
<text text-anchor="start" x="874.5" y="-206.8" font-family="Times,serif" font-size="14.00">created_at :datetime</text>
<text text-anchor="start" x="874.5" y="-191.8" font-family="Times,serif" font-size="14.00">updated_at :datetime</text>
<text text-anchor="start" x="874.5" y="-176.8" font-family="Times,serif" font-size="14.00">owner :integer</text>
</g>
<!-- User&#45;&gt;Suggested -->
<g id="edge4" class="edge"><title>User&#45;&gt;Suggested</title>
<path fill="none" stroke="#0bed0e" d="M755.013,-410.888C804.584,-398.288 865.079,-374.885 903,-332 914.548,-318.94 921.571,-301.781 925.82,-284.954"/>
<ellipse fill="none" stroke="#0bed0e" cx="751.041" cy="-411.865" rx="4.00001" ry="4.00001"/>
<polygon fill="#0bed0e" stroke="#0bed0e" points="925.837,-284.878 932.407,-276.098 926.926,-279.998 928.015,-275.118 928.015,-275.118 928.015,-275.118 926.926,-279.998 923.623,-274.138 925.837,-284.878 925.837,-284.878"/>
</g>
<!-- Group -->
<g id="node10" class="node"><title>Group</title>
<path fill="none" stroke="black" d="M524.5,-154C524.5,-154 631.5,-154 631.5,-154 637.5,-154 643.5,-160 643.5,-166 643.5,-166 643.5,-278 643.5,-278 643.5,-284 637.5,-290 631.5,-290 631.5,-290 524.5,-290 524.5,-290 518.5,-290 512.5,-284 512.5,-278 512.5,-278 512.5,-166 512.5,-166 512.5,-160 518.5,-154 524.5,-154"/>
<text text-anchor="middle" x="578" y="-274.8" font-family="Times,serif" font-size="14.00">Group</text>
<polyline fill="none" stroke="black" points="512.5,-267 643.5,-267 "/>
<text text-anchor="start" x="520.5" y="-251.8" font-family="Times,serif" font-size="14.00">id :integer</text>
<text text-anchor="start" x="520.5" y="-236.8" font-family="Times,serif" font-size="14.00">name :text</text>
<text text-anchor="start" x="520.5" y="-221.8" font-family="Times,serif" font-size="14.00">description :text</text>
<text text-anchor="start" x="520.5" y="-206.8" font-family="Times,serif" font-size="14.00">created_at :datetime</text>
<text text-anchor="start" x="520.5" y="-191.8" font-family="Times,serif" font-size="14.00">updated_at :datetime</text>
<text text-anchor="start" x="520.5" y="-176.8" font-family="Times,serif" font-size="14.00">admin :integer</text>
<text text-anchor="start" x="520.5" y="-161.8" font-family="Times,serif" font-size="14.00">open :boolean</text>
</g>
<!-- User&#45;&gt;Group -->
<g id="edge10" class="edge"><title>User&#45;&gt;Group</title>
<path fill="none" stroke="#f4ad62" d="M632.907,-340.991C626.478,-327.176 619.846,-312.924 613.511,-299.31"/>
<polygon fill="#f4ad62" stroke="#f4ad62" points="633.046,-341.29 633.185,-352.255 635.155,-345.823 637.265,-350.357 637.265,-350.357 637.265,-350.357 635.155,-345.823 641.345,-348.458 633.046,-341.29 633.046,-341.29"/>
<polygon fill="#f4ad62" stroke="#f4ad62" points="613.397,-299.066 613.258,-288.101 611.288,-294.533 609.178,-290 609.178,-290 609.178,-290 611.288,-294.533 605.098,-291.899 613.397,-299.066 613.397,-299.066"/>
</g>
<!-- Tweet&#45;&gt;Hashrelation -->
<g id="edge12" class="edge"><title>Tweet&#45;&gt;Hashrelation</title>
<path fill="none" stroke="#3ca12a" d="M340.348,-138.78C336.958,-131.176 333.564,-123.563 330.28,-116.196"/>
<ellipse fill="none" stroke="#3ca12a" cx="342.051" cy="-142.602" rx="4.00002" ry="4.00002"/>
<polygon fill="#3ca12a" stroke="#3ca12a" points="330.26,-116.15 330.298,-105.184 328.224,-111.583 326.188,-107.016 326.188,-107.016 326.188,-107.016 328.224,-111.583 322.078,-108.849 330.26,-116.15 330.26,-116.15"/>
</g>
<!-- Group&#45;&gt;Grouprel -->
<g id="edge13" class="edge"><title>Group&#45;&gt;Grouprel</title>
<path fill="none" stroke="#bbd014" d="M540.359,-146.615C535.209,-136.438 529.971,-126.086 524.959,-116.181"/>
<ellipse fill="none" stroke="#bbd014" cx="542.27" cy="-150.391" rx="4.00002" ry="4.00002"/>
<polygon fill="#bbd014" stroke="#bbd014" points="524.943,-116.15 524.443,-105.195 522.686,-111.688 520.428,-107.227 520.428,-107.227 520.428,-107.227 522.686,-111.688 516.413,-109.259 524.943,-116.15 524.943,-116.15"/>
</g>
<!-- Group&#45;&gt;Ban -->
<g id="edge14" class="edge"><title>Group&#45;&gt;Ban</title>
<path fill="none" stroke="#97ca99" d="M611.608,-146.615C616.159,-136.541 620.787,-126.297 625.221,-116.484"/>
<ellipse fill="none" stroke="#97ca99" cx="609.936" cy="-150.315" rx="4.00002" ry="4.00002"/>
<polygon fill="#97ca99" stroke="#97ca99" points="625.286,-116.34 633.504,-109.08 627.345,-111.784 629.403,-107.227 629.403,-107.227 629.403,-107.227 627.345,-111.784 625.303,-105.374 625.286,-116.34 625.286,-116.34"/>
</g>
</g>
</svg>
